<?xml version="1.0" standalone="no"?>
<!DOCTYPE svg PUBLIC "-//W3C//DTD SVG 20010904//EN"
 "http://www.w3.org/TR/2001/REC-SVG-20010904/DTD/svg10.dtd">
<svg version="1.0" xmlns="http://www.w3.org/2000/svg"
 width="1088.000000pt" height="1088.000000pt" viewBox="0 0 1088.000000 1088.000000"
 preserveAspectRatio="xMidYMid meet">
<metadata>
Created by potrace 1.14, written by Peter Selinger 2001-2017
</metadata>
<g transform="translate(0.000000,1088.000000) scale(0.100000,-0.100000)"
fill="#000000" stroke="none">
<path d="M6644 10844 c-21 -20 -77 -70 -123 -112 -46 -43 -110 -101 -142 -131
l-59 -55 38 -34 c41 -38 214 -198 272 -252 83 -77 241 -223 260 -240 11 -9 20
-20 20 -23 0 -3 -916 -5 -2035 -4 l-2035 2 0 -100 c-1 -55 -1 -109 0 -120 1
-11 1 -27 1 -35 0 -8 0 -51 0 -95 1 -44 1 -84 1 -90 -3 -118 -3 -147 1 -151 8
-9 207 -9 207 -1 0 5 4 6 9 2 8 -4 50 -6 141 -4 127 2 362 -1 369 -5 3 -2 15
0 26 4 11 4 32 4 47 -1 16 -4 30 -3 34 2 3 5 9 7 14 4 6 -3 67 -6 137 -5 71 0
137 1 148 1 11 0 43 0 70 0 28 0 56 0 63 0 6 0 48 0 92 0 44 0 88 0 98 0 9 -1
40 0 67 0 28 0 56 0 63 0 6 0 48 0 92 0 44 0 88 0 98 0 9 -1 40 0 67 0 28 0
56 0 63 0 6 0 48 0 92 0 44 0 88 0 98 0 9 -1 40 0 67 0 28 0 55 0 60 0 94 -5
225 -4 225 2 0 5 4 6 9 2 8 -4 50 -6 141 -4 127 2 362 -1 369 -5 3 -2 15 0 26
4 11 4 32 4 47 -1 15 -4 30 -4 33 1 3 5 12 7 19 4 21 -8 316 -10 316 -2 0 4 6
5 13 2 23 -8 307 -10 307 -1 0 5 4 6 9 2 6 -3 36 -5 68 -5 169 2 263 0 263 -4
0 -5 -5 -10 -114 -111 -48 -44 -109 -100 -135 -125 -27 -25 -92 -85 -146 -135
-54 -49 -119 -110 -146 -135 l-47 -46 86 -81 c48 -44 109 -100 136 -124 26
-24 68 -63 92 -86 l44 -43 87 82 c138 128 246 228 322 298 39 36 100 92 135
125 35 33 103 96 151 140 48 44 107 98 130 120 24 22 82 76 130 120 48 44 108
100 134 124 25 24 79 73 118 109 l73 65 -54 51 c-29 28 -99 94 -155 146 -57
52 -120 111 -141 130 -20 19 -86 80 -145 135 -59 55 -120 111 -135 125 -15 14
-75 70 -134 125 -60 55 -125 116 -146 135 -20 19 -84 78 -141 130 -96 89 -120
111 -196 182 l-29 28 -40 -36z"/>
<path d="M2855 4395 c0 -1845 4 -3357 8 -3362 5 -4 257 -8 560 -8 l553 0 -1
1423 c0 938 3 1426 10 1431 6 4 339 7 742 7 l732 -1 20 -22 c12 -12 21 -25 21
-29 0 -3 43 -78 96 -165 52 -87 101 -169 107 -181 20 -37 158 -270 182 -308
24 -38 133 -221 170 -285 13 -22 50 -85 84 -140 33 -55 78 -131 101 -170 22
-38 54 -92 70 -120 17 -27 33 -57 37 -65 4 -8 9 -17 13 -20 3 -3 26 -39 49
-80 24 -41 51 -88 61 -105 13 -23 400 -675 478 -805 9 -15 34 -57 55 -92 20
-34 51 -85 67 -113 17 -27 34 -57 37 -65 4 -8 11 -19 16 -25 4 -5 16 -23 26
-40 l18 -30 641 0 c352 0 643 3 646 6 3 3 -14 34 -37 69 -23 36 -48 76 -55 90
-13 26 -21 40 -90 150 -23 36 -51 84 -63 108 -13 23 -26 42 -31 42 -4 0 -8 4
-8 10 0 5 -54 98 -120 206 -66 108 -120 200 -120 205 0 5 -4 9 -10 9 -5 0 -10
4 -10 9 0 5 -23 46 -50 90 -28 44 -50 85 -50 90 0 5 -3 11 -8 13 -6 2 -159
250 -212 343 -9 17 -34 57 -56 90 -21 33 -39 62 -39 65 0 3 -8 16 -17 30 -60
95 -88 142 -88 150 0 6 -4 10 -10 10 -5 0 -10 4 -10 9 0 5 -37 69 -82 143 -45
73 -86 143 -92 155 -6 13 -14 23 -18 23 -5 0 -8 4 -8 9 0 5 -41 75 -90 155
-50 81 -90 151 -90 156 0 6 -4 10 -10 10 -5 0 -10 4 -10 9 0 5 -23 46 -51 91
-28 45 -59 96 -68 114 -10 17 -53 87 -95 155 -42 68 -74 126 -71 129 3 3 11 7
18 8 19 3 196 63 267 91 74 28 274 127 290 143 3 3 37 26 75 52 39 26 80 56
93 68 12 11 22 18 22 15 0 -15 225 221 283 297 37 48 67 89 67 91 0 2 24 44
53 93 74 124 162 330 182 424 1 8 8 35 15 60 7 25 14 56 16 70 3 14 7 39 11
55 6 32 9 50 20 135 10 75 10 409 0 495 -7 58 -46 258 -61 315 -41 151 -154
398 -241 525 -94 138 -208 266 -320 360 -33 28 -61 53 -63 58 -2 4 -10 7 -18
7 -8 0 -14 3 -14 8 0 11 -106 81 -187 124 -24 12 -43 26 -43 30 0 4 -5 8 -10
8 -6 0 -57 22 -113 49 -144 69 -340 132 -487 155 -19 3 -48 8 -65 11 -16 3
-52 7 -80 10 -27 3 -70 8 -95 11 -25 4 -810 8 -1745 9 l-1700 4 0 -3354z
m3310 2291 c170 -27 240 -48 345 -103 76 -39 99 -53 118 -70 7 -7 17 -13 21
-13 9 0 157 -143 181 -175 66 -87 128 -221 149 -325 10 -50 24 -160 23 -185
-12 -286 -110 -496 -306 -656 -34 -27 -67 -54 -74 -60 -24 -20 -158 -88 -212
-108 -84 -30 -121 -39 -255 -57 -16 -2 -88 -6 -158 -9 -70 -2 -132 -7 -137
-10 -6 -4 -10 -3 -10 2 0 9 -751 9 -774 0 -9 -4 -17 -3 -20 1 -2 4 -39 6 -83
4 -43 -2 -82 -3 -88 -3 -204 4 -766 2 -773 -3 -6 -3 -13 -3 -16 2 -3 5 -29 7
-58 6 -28 -2 -55 0 -58 5 -4 7 -5 1713 -1 1757 1 8 287 11 1074 9 589 -1 1090
-5 1112 -9z"/>
</g>
</svg>
