<svg width="35" height="35" viewBox="0 0 35 35" fill="none" xmlns="http://www.w3.org/2000/svg">
<path d="M17.2082 15.8958C13.8978 15.0354 12.8332 14.1458 12.8332 12.7604C12.8332 11.1708 14.3061 10.0625 16.7707 10.0625C19.3666 10.0625 20.3291 11.3021 20.4166 13.125H23.6395C23.5374 10.6167 22.0061 8.3125 18.9582 7.56875V4.375H14.5832V7.525C11.7541 8.1375 9.47905 9.975 9.47905 12.7896C9.47905 16.1583 12.2645 17.8354 16.3332 18.8125C19.9791 19.6875 20.7082 20.9708 20.7082 22.3271C20.7082 23.3333 19.9936 24.9375 16.7707 24.9375C13.7666 24.9375 12.5853 23.5958 12.4249 21.875H9.21655C9.39155 25.0688 11.7832 26.8625 14.5832 27.4604V30.625H18.9582V27.4896C21.802 26.95 24.0624 25.3021 24.0624 22.3125C24.0624 18.1708 20.5186 16.7562 17.2082 15.8958Z" fill="#78BA4D"/>
</svg>
