<svg width="35" height="35" viewBox="0 0 35 35" fill="none" xmlns="http://www.w3.org/2000/svg">
<path d="M18.448 14.5833C17.2521 11.1854 14.0146 8.75 10.2084 8.75C5.38129 8.75 1.45837 12.6729 1.45837 17.5C1.45837 22.3271 5.38129 26.25 10.2084 26.25C14.0146 26.25 17.2521 23.8146 18.448 20.4167H24.7917V26.25H30.625V20.4167H33.5417V14.5833H18.448ZM10.2084 20.4167C8.60421 20.4167 7.29171 19.1042 7.29171 17.5C7.29171 15.8958 8.60421 14.5833 10.2084 14.5833C11.8125 14.5833 13.125 15.8958 13.125 17.5C13.125 19.1042 11.8125 20.4167 10.2084 20.4167Z" fill="#78BA4D"/>
</svg>
