<svg width="618" height="158" viewBox="0 0 618 158" fill="none" xmlns="http://www.w3.org/2000/svg">
<path d="M22.207 141V105.258H40.8398L62.0508 141H78.2812L55.957 104.203C57.0117 103.91 57.9492 103.617 58.8867 103.266C63.1641 101.742 66.8555 99.1055 69.6094 95.1797C72.3633 91.3125 73.8867 86.5078 73.8867 81.1758C73.8867 71.625 69.1406 64.0664 61.8164 60.1992C58.1836 58.1484 53.9062 56.9766 47.4609 56.9766H8.20312V141H22.207ZM22.207 92.3086V70.1016H45.7031C49.4531 70.1016 51.3281 70.3945 52.9688 71.0977C57.0703 72.7969 60 76.3711 60 81.2344C60 86.0977 57.0117 89.6133 52.9688 91.3125C51.2695 92.0156 49.3945 92.3086 45.7031 92.3086H22.207ZM88.8281 56.9766V141H146.191V127.992H102.891V101.332H136.465V88.4414H102.891V69.9844H146.191V56.9766H88.8281ZM159.727 56.918V141H217.148V127.875H173.789V56.918H159.727ZM305.098 98.9883C305.098 75.3164 286.875 56.9766 262.383 56.9766C237.891 56.9766 219.727 75.3164 219.727 98.9883C219.727 122.66 237.891 141 262.383 141C286.875 141 305.098 122.66 305.098 98.9883ZM290.742 98.9883C290.742 115.336 279.258 127.875 262.383 127.875C245.566 127.875 234.023 115.336 234.023 98.9883C234.023 82.6406 245.566 69.9844 262.383 69.9844C279.258 69.9844 290.742 82.6406 290.742 98.9883ZM396.621 85.8047C391.113 67.6406 374.941 56.918 356.074 56.918C331.816 56.918 313.359 75.3164 313.359 98.9883C313.359 122.953 332.402 141 356.074 141C375.469 141 391.758 129.105 396.797 111.527L383.438 107.367C379.57 120.141 369.434 127.992 356.074 127.992C339.316 127.992 327.715 114.984 327.715 98.9883C327.715 82.4648 339.492 69.9258 356.074 69.9258C369.434 69.9258 379.512 77.7188 383.32 90.1992L396.621 85.8047ZM464.004 141H478.711L444.961 56.9766H431.074L397.266 141H411.973L418.008 125.414H457.91L464.004 141ZM437.988 73.793L452.988 112.582H422.93L437.988 73.793ZM472.031 56.918V70.043H500.449V141H514.512V70.043H543.047V56.918H472.031ZM554.883 56.9766V141H612.246V127.992H568.945V101.332H602.52V88.4414H568.945V69.9844H612.246V56.9766H554.883Z" fill="#78BA4D"/>
<path d="M59 29H8V37H59L55 41L51.5 44.5L56 49L72 33L56.04 17L51.5 21.5L54.5 24.5L57 27L59 29Z" fill="#78BA4D"/>
</svg>
